<mxfile host="app.diagrams.net" modified="2024-03-30T03:04:16.879Z" agent="Mozilla/5.0 (Macintosh; Intel Mac OS X 10_15_7) AppleWebKit/537.36 (KHTML, like Gecko) Chrome/120.0.0.0 Safari/537.36" version="24.1.0" etag="SqYZm8di9cyHWCc-RGWs" type="github">
  <diagram name="Page-1" id="yoJ9GvvQE6kx2evxTRyc">
    <mxGraphModel>
      <root>
        <mxCell id="0" />
        <mxCell id="1" parent="0" />
      </root>
    </mxGraphModel>
  </diagram>
</mxfile>
